HIERARCHY
ROOT pelvis
{
  OFFSET 0 100 0
  CHANNELS 6 Xposition Yposition Zposition Zrotation Xrotation Yrotation
  JOINT pelvis_right_femur
  {
    OFFSET -10.78128 -3.44521 -0.5502486
    CHANNELS 3 Zrotation Xrotation Yrotation
    JOINT right_femur_tibia
    {
      OFFSET -0.8047443 -44.0398 -0.1307829
      CHANNELS 3 Zrotation Xrotation Yrotation
      JOINT right_tibia_foot
      {
        OFFSET 3.006224 -47.83518 -5
        CHANNELS 3 Zrotation Xrotation Yrotation
        End Site
        {
          OFFSET 0 -5 15
        }
      }
    }
  }
  JOINT pelvis_left_femur
  {
    OFFSET 10.78128 -3.44521 -0.5502486
    CHANNELS 3 Zrotation Xrotation Yrotation
    JOINT left_femur_tibia
    {
      OFFSET 0.8047443 -44.0398 -0.1307829
      CHANNELS 3 Zrotation Xrotation Yrotation
      JOINT left_tibia_foot
      {
        OFFSET -4.370144 -48.10324 -4.275266
        CHANNELS 3 Zrotation Xrotation Yrotation
        End Site
        {
          OFFSET 0 -5 15
        }
      }
    }
  }
  JOINT pelvis_spine1
  {
    OFFSET 0 6.468898 -3.129235
    CHANNELS 3 Zrotation Xrotation Yrotation
    JOINT spine1
    {
      OFFSET 0 23.15396 4.99043
      CHANNELS 3 Zrotation Xrotation Yrotation
      JOINT spine2
      {
        OFFSET 0 20.79997 -5.064912
        CHANNELS 3 Zrotation Xrotation Yrotation
        JOINT neck
        {
          OFFSET 0 14.38658 9.616178
          CHANNELS 3 Zrotation Xrotation Yrotation
          End Site
          {
            OFFSET 0 20 0
          }
        }
      }
      JOINT right_manubrium
      {
        OFFSET -5.722621 16.35077 3.967754
        CHANNELS 3 Zrotation Xrotation Yrotation
        JOINT right_clavicle
        {
          OFFSET -13.16364 1.694482 -4.693211
          CHANNELS 3 Zrotation Xrotation Yrotation
          JOINT right_humerus
          {
            OFFSET -28.5034 -0.3100689 -2.792744
            CHANNELS 3 Zrotation Xrotation Yrotation
            JOINT right_radius
            {
              OFFSET -25.15693 0.02248979 -1.271978
              CHANNELS 3 Zrotation Xrotation Yrotation
              End Site
              {
                OFFSET -15 0 0
              }
            }
          }
        }
      }
      JOINT left_manubrium
      {
        OFFSET 5.722621 16.35077 3.967754
        CHANNELS 3 Zrotation Xrotation Yrotation
        JOINT left_clavicle
        {
          OFFSET 13.16364 1.694482 -4.693211
          CHANNELS 3 Zrotation Xrotation Yrotation
          JOINT left_humerus
          {
            OFFSET 29.39168 -1.063119 -2.237045
            CHANNELS 3 Zrotation Xrotation Yrotation
            JOINT left_radius
            {
              OFFSET 24.59957 -0.9528479 0.9047498
              CHANNELS 3 Zrotation Xrotation Yrotation
              End Site
              {
                OFFSET 15 -0 -0
              }
            }
          }
        }
      }
    }
  }
}
MOTION
Frames: 15
Frame Time: 0.0416666666667
-121.5635 110.4908 73.68071 4.323092 -10.32539 32.70943 8.912411 6.456958 -2.791996 -0 12.14188 -0 -8.704681 0.1667083 0.5736324 4.558898 -12.1145 -0.1202024 -0 24.92818 -0 3.227493 -0.2969693 10.24992 4.460363 -7.569042 9.627153 0.9367059 23.75861 -8.948042 0.1340663 17.88793 3.453713 0.4897882 -21.59445 4.151344 -3.138943 -38.25235 16.48385 95.09535 3.166515 -19.17355 -0 0 27.57126 -35.72267 24.76832 20.17143 -1.363499 -30.36975 -16.31693 -97.47378 12.38099 45.43403 0 0 -23.65488 0.413234 17.81141 14.17663
-117.4094 110.4768 77.97138 4.188068 -10.38038 31.95809 8.912411 6.456958 -2.791996 -0 12.14188 -0 -8.704681 0.1667083 0.5736324 4.558898 -12.1145 -0.1202024 -0 24.92818 -0 3.227493 -0.2969693 10.24992 4.460363 -7.569042 9.627153 0.9367059 23.75861 -8.948042 0.1340663 17.88793 3.453713 0.4897882 -21.59445 4.151344 -3.138943 -38.25235 16.48385 95.09535 3.166515 -19.17355 -0 0 27.57126 -35.72267 24.76832 20.17143 -1.363499 -30.36975 -16.31693 -97.47378 12.38099 45.43403 0 0 -23.65488 0.413234 17.81141 14.17663
-113.3112 110.4628 82.31542 4.052298 -10.43364 31.2065 8.912411 6.456958 -2.791996 -0 12.14188 -0 -8.704681 0.1667083 0.5736324 4.558898 -12.1145 -0.1202024 -0 24.92818 -0 3.227493 -0.2969693 10.24992 4.460363 -7.569042 9.627153 0.9367059 23.75861 -8.948042 0.1340663 17.88793 3.453713 0.4897882 -21.59445 4.151344 -3.138943 -38.25235 16.48385 95.09535 3.166515 -19.17355 -0 0 27.57126 -35.72267 24.76832 20.17143 -1.363499 -30.36975 -16.31693 -97.47378 12.38099 45.43403 0 0 -23.65488 0.413234 17.81141 14.17663
-109.2696 110.4488 86.71211 3.915807 -10.48513 30.45465 8.912411 6.456958 -2.791996 -0 12.14188 -0 -8.704681 0.1667083 0.5736324 4.558898 -12.1145 -0.1202024 -0 24.92818 -0 3.227493 -0.2969693 10.24992 4.460363 -7.569042 9.627153 0.9367059 23.75861 -8.948042 0.1340663 17.88793 3.453713 0.4897882 -21.59445 4.151344 -3.138943 -38.25235 16.48385 95.09535 3.166515 -19.17355 -0 0 27.57126 -35.72267 24.76832 20.17143 -1.363499 -30.36975 -16.31693 -97.47378 12.38099 45.43403 0 0 -23.65488 0.413234 17.81141 14.17663
-105.2852 110.4349 91.16072 3.778617 -10.53486 29.70255 8.912411 6.456958 -2.791996 -0 12.14188 -0 -8.704681 0.1667083 0.5736324 4.558898 -12.1145 -0.1202024 -0 24.92818 -0 3.227493 -0.2969693 10.24992 4.460363 -7.569042 9.627153 0.9367059 23.75861 -8.948042 0.1340663 17.88793 3.453713 0.4897882 -21.59445 4.151344 -3.138943 -38.25235 16.48385 95.09535 3.166515 -19.17355 -0 0 27.57126 -35.72267 24.76832 20.17143 -1.363499 -30.36975 -16.31693 -97.47378 12.38099 45.43403 0 0 -23.65488 0.413234 17.81141 14.17663
-101.3586 110.4209 95.66049 3.640754 -10.58281 28.95022 8.912411 6.456958 -2.791996 -0 12.14188 -0 -8.704681 0.1667083 0.5736324 4.558898 -12.1145 -0.1202024 -0 24.92818 -0 3.227493 -0.2969693 10.24992 4.460363 -7.569042 9.627153 0.9367059 23.75861 -8.948042 0.1340663 17.88793 3.453713 0.4897882 -21.59445 4.151344 -3.138943 -38.25235 16.48385 95.09535 3.166515 -19.17355 -0 0 27.57126 -35.72267 24.76832 20.17143 -1.363499 -30.36975 -16.31693 -97.47378 12.38099 45.43403 0 0 -23.65488 0.413234 17.81141 14.17663
-97.49057 110.4069 100.2107 3.502241 -10.62898 28.19766 8.912411 6.456958 -2.791996 -0 12.14188 -0 -8.704681 0.1667083 0.5736324 4.558898 -12.1145 -0.1202024 -0 24.92818 -0 3.227493 -0.2969693 10.24992 4.460363 -7.569042 9.627153 0.9367059 23.75861 -8.948042 0.1340663 17.88793 3.453713 0.4897882 -21.59445 4.151344 -3.138943 -38.25235 16.48385 95.09535 3.166515 -19.17355 -0 0 27.57126 -35.72267 24.76832 20.17143 -1.363499 -30.36975 -16.31693 -97.47378 12.38099 45.43403 0 0 -23.65488 0.413234 17.81141 14.17663
-93.68172 110.3929 104.8105 3.363102 -10.67336 27.44487 8.912411 6.456958 -2.791996 -0 12.14188 -0 -8.704681 0.1667083 0.5736324 4.558898 -12.1145 -0.1202024 -0 24.92818 -0 3.227493 -0.2969693 10.24992 4.460363 -7.569042 9.627153 0.9367059 23.75861 -8.948042 0.1340663 17.88793 3.453713 0.4897882 -21.59445 4.151344 -3.138943 -38.25235 16.48385 95.09535 3.166515 -19.17355 -0 0 27.57126 -35.72267 24.76832 20.17143 -1.363499 -30.36975 -16.31693 -97.47378 12.38099 45.43403 0 0 -23.65488 0.413234 17.81141 14.17663
-89.93269 110.3789 109.4592 3.223362 -10.71594 26.69187 8.912411 6.456958 -2.791996 -0 12.14188 -0 -8.704681 0.1667083 0.5736324 4.558898 -12.1145 -0.1202024 -0 24.92818 -0 3.227493 -0.2969693 10.24992 4.460363 -7.569042 9.627153 0.9367059 23.75861 -8.948042 0.1340663 17.88793 3.453713 0.4897882 -21.59445 4.151344 -3.138943 -38.25235 16.48385 95.09535 3.166515 -19.17355 -0 0 27.57126 -35.72267 24.76832 20.17143 -1.363499 -30.36975 -16.31693 -97.47378 12.38099 45.43403 0 0 -23.65488 0.413234 17.81141 14.17663
-86.2441 110.3649 114.156 3.083045 -10.7567 25.93866 8.912411 6.456958 -2.791996 -0 12.14188 -0 -8.704681 0.1667083 0.5736324 4.558898 -12.1145 -0.1202024 -0 24.92818 -0 3.227493 -0.2969693 10.24992 4.460363 -7.569042 9.627153 0.9367059 23.75861 -8.948042 0.1340663 17.88793 3.453713 0.4897882 -21.59445 4.151344 -3.138943 -38.25235 16.48385 95.09535 3.166515 -19.17355 -0 0 27.57126 -35.72267 24.76832 20.17143 -1.363499 -30.36975 -16.31693 -97.47378 12.38099 45.43403 0 0 -23.65488 0.413234 17.81141 14.17663
-82.61658 110.3509 118.9002 2.942176 -10.79566 25.18525 8.912411 6.456958 -2.791996 -0 12.14188 -0 -8.704681 0.1667083 0.5736324 4.558898 -12.1145 -0.1202024 -0 24.92818 -0 3.227493 -0.2969693 10.24992 4.460363 -7.569042 9.627153 0.9367059 23.75861 -8.948042 0.1340663 17.88793 3.453713 0.4897882 -21.59445 4.151344 -3.138943 -38.25235 16.48385 95.09535 3.166515 -19.17355 -0 0 27.57126 -35.72267 24.76832 20.17143 -1.363499 -30.36975 -16.31693 -97.47378 12.38099 45.43403 0 0 -23.65488 0.413234 17.81141 14.17663
-79.05073 110.3369 123.6909 2.80078 -10.83278 24.43165 8.912411 6.456958 -2.791996 -0 12.14188 -0 -8.704681 0.1667083 0.5736324 4.558898 -12.1145 -0.1202024 -0 24.92818 -0 3.227493 -0.2969693 10.24992 4.460363 -7.569042 9.627153 0.9367059 23.75861 -8.948042 0.1340663 17.88793 3.453713 0.4897882 -21.59445 4.151344 -3.138943 -38.25235 16.48385 95.09535 3.166515 -19.17355 -0 0 27.57126 -35.72267 24.76832 20.17143 -1.363499 -30.36975 -16.31693 -97.47378 12.38099 45.43403 0 0 -23.65488 0.413234 17.81141 14.17663
-75.54714 110.323 128.5273 2.658881 -10.86808 23.67787 8.912411 6.456958 -2.791996 -0 12.14188 -0 -8.704681 0.1667083 0.5736324 4.558898 -12.1145 -0.1202024 -0 24.92818 -0 3.227493 -0.2969693 10.24992 4.460363 -7.569042 9.627153 0.9367059 23.75861 -8.948042 0.1340663 17.88793 3.453713 0.4897882 -21.59445 4.151344 -3.138943 -38.25235 16.48385 95.09535 3.166515 -19.17355 -0 0 27.57126 -35.72267 24.76832 20.17143 -1.363499 -30.36975 -16.31693 -97.47378 12.38099 45.43403 0 0 -23.65488 0.413234 17.81141 14.17663
-72.10641 110.309 133.4086 2.516506 -10.90155 22.92391 8.912411 6.456958 -2.791996 -0 12.14188 -0 -8.704681 0.1667083 0.5736324 4.558898 -12.1145 -0.1202024 -0 24.92818 -0 3.227493 -0.2969693 10.24992 4.460363 -7.569042 9.627153 0.9367059 23.75861 -8.948042 0.1340663 17.88793 3.453713 0.4897882 -21.59445 4.151344 -3.138943 -38.25235 16.48385 95.09535 3.166515 -19.17355 -0 0 27.57126 -35.72267 24.76832 20.17143 -1.363499 -30.36975 -16.31693 -97.47378 12.38099 45.43403 0 0 -23.65488 0.413234 17.81141 14.17663
-68.7291 110.295 138.334 2.373679 -10.93317 22.16979 8.912411 6.456958 -2.791996 -0 12.14188 -0 -8.704681 0.1667083 0.5736324 4.558898 -12.1145 -0.1202024 -0 24.92818 -0 3.227493 -0.2969693 10.24992 4.460363 -7.569042 9.627153 0.9367059 23.75861 -8.948042 0.1340663 17.88793 3.453713 0.4897882 -21.59445 4.151344 -3.138943 -38.25235 16.48385 95.09535 3.166515 -19.17355 -0 0 27.57126 -35.72267 24.76832 20.17143 -1.363499 -30.36975 -16.31693 -97.47378 12.38099 45.43403 0 0 -23.65488 0.413234 17.81141 14.17663
